<svg xmlns="http://www.w3.org/2000/svg" style="display: none;">
    <symbol id="final" width="39" height="36" fill="none" viewBox="0 0 39 36">
      <path fill="red" d="M12 6H9v3h3V6Zm0 3H9v3h3V9Zm3 3h-3v3h3v-3Zm3-3h-3v3h3V9Zm-3-3h-3v3h3V6ZM9 9H6v3h3V9Zm0 3H6v3h3v-3Zm0 3H6v3h3v-3Zm9-9h-3v3h3V6Zm-6 9H9v3h3v-3Zm0 3H9v3h3v-3Zm3-3h-3v3h3v-3Zm0 3h-3v3h3v-3Zm0 3h-3v3h3v-3Zm3-6h-3v3h3v-3Zm0-3h-3v3h3v-3Zm0 9h-3v3h3v-3Zm0-3h-3v3h3v-3Zm0 6h-3v3h3v-3Zm9-18h3v3h-3V6Zm0 3h3v3h-3V9Zm-3 0h3v3h-3V9Zm3 3h3v3h-3v-3Zm-3 0h3v3h-3v-3Zm-3-3h3v3h-3V9Zm3-3h3v3h-3V6Zm6 3h3v3h-3V9Zm0 3h3v3h-3v-3Zm0 3h3v3h-3v-3Zm-9-9h3v3h-3V6Zm6 9h3v3h-3v-3Zm0 3h3v3h-3v-3Zm-3-3h3v3h-3v-3Zm0 3h3v3h-3v-3Zm0 3h3v3h-3v-3Zm-3-6h3v3h-3v-3Zm0-3h3v3h-3v-3Zm0 9h3v3h-3v-3Zm0-3h3v3h-3v-3Zm0 6h3v3h-3v-3Zm0-15h-3v3h3V9Zm0 6h-3v3h3v-3Zm0-3h-3v3h3v-3Zm0 9h-3v3h3v-3Zm0-3h-3v3h3v-3Zm0 6h-3v3h3v-3Zm0 3h-3v3h3v-3Z"/>
    </symbol>
    <symbol id="sparkles" width="39" height="36" fill="none" viewBox="0 0 39 36">
      <path fill="red" d="M12 6H9v3h3V6Zm0 3H9v3h3V9Zm3 3h-3v3h3v-3Zm3-3h-3v3h3V9Zm-3-3h-3v3h3V6ZM9 9H6v3h3V9Zm0 3H6v3h3v-3Zm0 3H6v3h3v-3Zm9-9h-3v3h3V6Zm-6 9H9v3h3v-3Zm0 3H9v3h3v-3Zm3-3h-3v3h3v-3Zm0 3h-3v3h3v-3Zm0 3h-3v3h3v-3Zm3-6h-3v3h3v-3Zm0-3h-3v3h3v-3Zm0 9h-3v3h3v-3Zm0-3h-3v3h3v-3Zm0 6h-3v3h3v-3Zm9-18h3v3h-3V6Zm0 3h3v3h-3V9Zm-3 0h3v3h-3V9Zm3 3h3v3h-3v-3Zm-3 0h3v3h-3v-3Zm-3-3h3v3h-3V9Zm3-3h3v3h-3V6Zm6 3h3v3h-3V9Zm6 4h3v3h-3v-3Zm-9 14h3v3h-3v-3Zm-9 6h3v3h-3v-3Zm-9-6h3v3H9v-3ZM24 0h3v3h-3V0Zm9 3h3v3h-3V3ZM3 3h3v3H3V3Zm9-3h3v3h-3V0ZM0 13h3v3H0v-3Zm30-1h3v3h-3v-3Zm0 3h3v3h-3v-3Zm-9-9h3v3h-3V6Zm6 9h3v3h-3v-3Zm0 3h3v3h-3v-3Zm-3-3h3v3h-3v-3Zm0 3h3v3h-3v-3Zm0 3h3v3h-3v-3Zm-3-6h3v3h-3v-3Zm0-3h3v3h-3v-3Zm0 9h3v3h-3v-3Zm0-3h3v3h-3v-3Zm0 6h3v3h-3v-3Zm0-15h-3v3h3V9Zm0 6h-3v3h3v-3Zm0-3h-3v3h3v-3Zm0 9h-3v3h3v-3Zm0-3h-3v3h3v-3Zm0 6h-3v3h3v-3Zm0 3h-3v3h3v-3Z"/>
    </symbol>
    <symbol id="big" width="39" height="36" fill="none" viewBox="0 0 39 36">
      <path fill="red" d="M12 6H9v3h3V6ZM9 6H6v3h3V6Zm3 3H9v3h3V9Zm3 3h-3v3h3v-3Zm3-3h-3v3h3V9Zm-3-3h-3v3h3V6ZM9 9H6v3h3V9Zm0 3H6v3h3v-3Zm0 3H6v3h3v-3ZM6 9H3v3h3V9Zm0 3H3v3h3v-3Zm0 3H3v3h3v-3Zm12-9h-3v3h3V6Zm-6 9H9v3h3v-3Zm0 3H9v3h3v-3Zm3-3h-3v3h3v-3Zm0 3h-3v3h3v-3Zm0 3h-3v3h3v-3Zm3-6h-3v3h3v-3Zm0-3h-3v3h3v-3Zm0 9h-3v3h3v-3Zm0-3h-3v3h3v-3Zm0 6h-3v3h3v-3Zm9-18h3v3h-3V6Zm3 0h3v3h-3V6Zm-3 3h3v3h-3V9Zm-3 0h3v3h-3V9Zm3 3h3v3h-3v-3Zm-3 0h3v3h-3v-3Zm-3-3h3v3h-3V9Zm3-3h3v3h-3V6Zm6 3h3v3h-3V9Zm3 0h3v3h-3V9Zm0 3h3v3h-3v-3Zm0 3h3v3h-3v-3Zm-3-3h3v3h-3v-3Zm0 3h3v3h-3v-3Zm-9-9h3v3h-3V6Zm-9-3H9v3h3V3Zm3 0h-3v3h3V3Zm3 0h-3v3h3V3Zm9 0h3v3h-3V3Zm-3 0h3v3h-3V3Zm-3 0h3v3h-3V3Zm6 12h3v3h-3v-3Zm0 3h3v3h-3v-3Zm-3-3h3v3h-3v-3Zm0 3h3v3h-3v-3Zm0 3h3v3h-3v-3Zm-3-6h3v3h-3v-3Zm0-3h3v3h-3v-3Zm0 9h3v3h-3v-3Zm0-3h3v3h-3v-3Zm0 6h3v3h-3v-3Zm0-15h-3v3h3V9Zm0-3h-3v3h3V6Zm0 9h-3v3h3v-3Zm0-3h-3v3h3v-3Zm0 9h-3v3h3v-3Zm0-3h-3v3h3v-3Zm0 6h-3v3h3v-3Zm0 3h-3v3h3v-3Zm0 3h-3v3h3v-3Zm9-12h3v3h-3v-3Zm-3 3h3v3h-3v-3Zm-3 3h3v3h-3v-3Zm0 3h-3v3h3v-3ZM9 18H6v3h3v-3Zm3 3H9v3h3v-3Zm3 3h-3v3h3v-3Zm3 3h-3v3h3v-3Z"/>
    </symbol>
    <symbol id="glow" width="39" height="36" fill="none" viewBox="0 0 39 36">
      <path fill="red" d="M12 6H9v3h3V6Zm0 3H9v3h3V9Zm3 3h-3v3h3v-3Zm3-3h-3v3h3V9Zm-3-3h-3v3h3V6ZM9 9H6v3h3V9Zm0 3H6v3h3v-3Zm0 3H6v3h3v-3Zm9-9h-3v3h3V6Zm-6 9H9v3h3v-3Zm0 3H9v3h3v-3Zm3-3h-3v3h3v-3Zm0 3h-3v3h3v-3Zm0 3h-3v3h3v-3Zm3-6h-3v3h3v-3Zm0-3h-3v3h3v-3Zm0 9h-3v3h3v-3Zm0-3h-3v3h3v-3Zm0 6h-3v3h3v-3Zm9-18h3v3h-3V6Zm0 3h3v3h-3V9Zm-3 0h3v3h-3V9Zm3 3h3v3h-3v-3Zm-3 0h3v3h-3v-3Zm-3-3h3v3h-3V9Zm3-3h3v3h-3V6Zm6 3h3v3h-3V9Zm0 3h3v3h-3v-3Zm0 3h3v3h-3v-3Zm-9-9h3v3h-3V6Zm6 9h3v3h-3v-3Zm0 3h3v3h-3v-3Zm-3-3h3v3h-3v-3Zm0 3h3v3h-3v-3Zm0 3h3v3h-3v-3Zm-3-6h3v3h-3v-3Zm0-3h3v3h-3v-3Zm0 9h3v3h-3v-3Zm0-3h3v3h-3v-3Zm0 6h3v3h-3v-3Zm0-15h-3v3h3V9Zm0 6h-3v3h3v-3Zm0-3h-3v3h3v-3Zm0 9h-3v3h3v-3Zm0-3h-3v3h3v-3Zm0 6h-3v3h3v-3Zm0 3h-3v3h3v-3Z"/>
    </symbol>
    <symbol id="starting" width="39" height="36" fill="none" viewBox="0 0 39 36">
      <path fill="#000" d="M12 6H9v3h3V6Zm3 0h-3v3h3V6ZM9 9H6v3h3V9Zm0 3H6v3h3v-3Zm0 3H6v3h3v-3Zm9-9h-3v3h3V6Zm-6 12H9v3h3v-3Zm3 3h-3v3h3v-3Z"/>
      <path fill="red" d="M18 15h-3v3h3v-3Z"/>
      <path fill="#000" d="M18 24h-3v3h3v-3Zm9-18h3v3h-3V6Zm-3 0h3v3h-3V6Zm6 3h3v3h-3V9Zm0 3h3v3h-3v-3Zm0 3h3v3h-3v-3Zm-9-9h3v3h-3V6Zm6 12h3v3h-3v-3Zm-3 3h3v3h-3v-3Z"/>
      <path fill="red" d="M21 15h3v3h-3v-3Z"/>
      <path fill="#000" d="M21 24h3v3h-3v-3Zm0-15h-3v3h3V9Z"/>
      <path fill="red" d="M21 15h-3v3h3v-3Zm0-3h-3v3h3v-3Zm0 6h-3v3h3v-3Z"/>
      <path fill="#000" d="M21 27h-3v3h3v-3Z"/>
    </symbol>
    <symbol id="initial" width="39" height="36" fill="none" viewBox="0 0 39 36">
      <path fill="#000" d="M12 6H9v3h3V6Zm3 0h-3v3h3V6ZM9 9H6v3h3V9Zm0 3H6v3h3v-3Zm0 3H6v3h3v-3Zm9-9h-3v3h3V6Zm-6 12H9v3h3v-3Zm3 3h-3v3h3v-3Zm3 3h-3v3h3v-3Zm9-18h3v3h-3V6Zm-3 0h3v3h-3V6Zm6 3h3v3h-3V9Zm0 3h3v3h-3v-3Zm0 3h3v3h-3v-3Zm-9-9h3v3h-3V6Zm6 12h3v3h-3v-3Zm-3 3h3v3h-3v-3Zm-3 3h3v3h-3v-3Zm0-15h-3v3h3V9Zm0 18h-3v3h3v-3Z"/>
    </symbol>
</svg>
